<?xml version="1.0" encoding="UTF-8"?>
<svg viewBox="0 0 76 79" xmlns="http://www.w3.org/2000/svg">
<title>FNSLogo</title>
<g>
<title>Layer 1</title>
<g data-name="Layer 2">
<g data-name="Layer 1">
<path class="cls-1" d="m38.783 66.265a28.31 28.31 0 1 1 27.48-29.11 28.3 28.3 0 0 1-27.48 29.11m37.2-29.39a38 38 0 1 0-36.93 39.11 38 38 0 0 0 36.93-39.11" fill="#0066b3"/>
<path class="cls-2" d="m37.933 65.595a27.63 27.63 0 0 1-0.78-55.24h0.81a27.62 27.62 0 0 1 0.78 55.23h-0.81m0 0.68h0.83a28.31 28.31 0 0 0-0.8-56.61h-0.83a28.31 28.31 0 0 0 0.8 56.62" fill="#fff"/>
<path class="cls-1" d="m37.983 11.035h-0.79a26.94 26.94 0 0 0 0.74 53.9h0.79a26.94 26.94 0 0 0-0.76-53.86l0.02-0.04zm-0.05 55.9a29 29 0 0 1-21-48.87 28.77 28.77 0 0 1 20.2-9.08h0.85a29 29 0 0 1 0.81 58h-0.86" fill="#0066b3"/>
<path class="cls-2" d="m64.823 59.555-1.21-1.85-0.87 1.1 2.08 0.75zm-4.25-0.48-0.21-0.09s-0.07-0.06-0.07-0.1a0.21 0.21 0 0 1 0-0.15 2.15 2.15 0 0 1 0.18-0.23 2.22 2.22 0 0 1 0.19-0.24 0.58 0.58 0 0 1 0.13-0.11 0.1 0.1 0 0 1 0.08 0h0.08l1 0.36 1.16-1.46-0.56-0.84a0.41 0.41 0 0 1 0-0.09 0.17 0.17 0 0 1 0-0.1l0.08-0.14 0.16-0.21 0.18-0.21a0.19 0.19 0 0 1 0.13-0.07s0.07 0 0.11 0.05a1.06 1.06 0 0 1 0.13 0.18l2.49 3.93a0.47 0.47 0 0 1 0 0.1 0.53 0.53 0 0 1 0 0.12l-0.1 0.16a2.42 2.42 0 0 1-0.19 0.24l-0.22 0.28-0.16 0.15a0.19 0.19 0 0 1-0.11 0 0.32 0.32 0 0 1-0.13 0l-4.35-1.53zm4.6-4.45a0.67 0.67 0 0 0 0.29 0.1 0.62 0.62 0 0 0 0.27 0 0.66 0.66 0 0 0 0.25-0.17 1.17 1.17 0 0 0 0.26-0.35l0.32-0.56-1.25-0.71-0.32 0.57a1.64 1.64 0 0 0-0.16 0.38 1 1 0 0 0 0 0.29 0.76 0.76 0 0 0 0.11 0.26 0.68 0.68 0 0 0 0.24 0.2m-0.44 0.93a1.63 1.63 0 0 1-0.48-0.41 1.26 1.26 0 0 1-0.26-0.53 1.53 1.53 0 0 1 0-0.67 2.63 2.63 0 0 1 0.35-0.86l0.65-1.16a0.31 0.31 0 0 1 0.17-0.17 0.33 0.33 0 0 1 0.26 0.06l3.75 2.11a0.28 0.28 0 0 1 0.17 0.19 0.32 0.32 0 0 1 0 0.23l-1.42 2.45-0.05 0.05h-0.08-0.13l-0.16-0.08-0.16-0.1a0.38 0.38 0 0 1-0.09-0.09 0.11 0.11 0 0 1 0-0.07 0.08 0.08 0 0 1 0-0.07l1-1.82-1.08-0.61-0.4 0.72a2.94 2.94 0 0 1-0.46 0.64 1.62 1.62 0 0 1-0.5 0.32 1.11 1.11 0 0 1-0.54 0.07 1.4 1.4 0 0 1-0.57-0.18m1.12-4.8a0.09 0.09 0 0 1-0.06 0s0-0.05 0-0.09a1 1 0 0 1 0-0.16 1.77 1.77 0 0 1 0.08-0.25 1.72 1.72 0 0 1 0.08-0.35 0.53 0.53 0 0 1 0.08-0.15 0.16 0.16 0 0 1 0.08-0.06h0.1 1.17a1.8 1.8 0 0 0 0.43 0 0.94 0.94 0 0 0 0.31-0.1 0.64 0.64 0 0 0 0.21-0.19 1 1 0 0 0 0.13-0.28l0.07-0.19-1.88-0.62s0 0-0.06 0a0.12 0.12 0 0 1 0-0.09 1.25 1.25 0 0 1 0-0.15l0.07-0.23 0.08-0.22 0.08-0.14 0.07-0.06h0.06l1.87 0.62 0.07-0.18a1 1 0 0 0 0-0.33 0.55 0.55 0 0 0-0.06-0.28 0.87 0.87 0 0 0-0.18-0.26 3 3 0 0 0-0.31-0.26l-1-0.69 0.06-0.14a0.31 0.31 0 0 1 0-0.11 1.37 1.37 0 0 1 0-0.16 2 2 0 0 1 0.07-0.25 2.21 2.21 0 0 1 0.1-0.24 1.07 1.07 0 0 1 0.07-0.15l0.07-0.06a0.11 0.11 0 0 1 0.08 0s0 0 0.06 0h0.07l0.1 0.08 0.83 0.64a2.57 2.57 0 0 1 0.38 0.33 1.22 1.22 0 0 1 0.23 0.29 0.79 0.79 0 0 1 0.13 0.28 2.87 2.87 0 0 1 0 0.31 0.9 0.9 0 0 1 0.19-0.2 0.74 0.74 0 0 1 0.25-0.14 2.14 2.14 0 0 1 0.34-0.08 3.18 3.18 0 0 1 0.47 0h1.14 0.11a0.09 0.09 0 0 1 0.06 0s0 0.05 0 0.09a1 1 0 0 1 0 0.15 1.53 1.53 0 0 1-0.07 0.24 1.54 1.54 0 0 1-0.09 0.24c0 0.06 0 0.12-0.08 0.14a0.17 0.17 0 0 1-0.08 0.07h-0.1-1.09a2.3 2.3 0 0 0-0.39 0 0.71 0.71 0 0 0-0.28 0.08 0.7 0.7 0 0 0-0.2 0.18 1 1 0 0 0-0.14 0.28l-0.06 0.19 1.76 0.58a0.1 0.1 0 0 1 0.06 0s0 0 0 0.09a0.47 0.47 0 0 1 0 0.15 1 1 0 0 1-0.07 0.23 1.77 1.77 0 0 1-0.08 0.22 0.58 0.58 0 0 1-0.08 0.14 0.13 0.13 0 0 1-0.07 0.06h-0.07l-1.67-0.37-0.06 0.18a0.89 0.89 0 0 0-0.06 0.31 0.58 0.58 0 0 0 0.06 0.26 1 1 0 0 0 0.18 0.25 1.48 1.48 0 0 0 0.29 0.24l0.89 0.63a0.22 0.22 0 0 1 0.07 0.06 0.17 0.17 0 0 1 0 0.1 0.53 0.53 0 0 1 0 0.16 1.07 1.07 0 0 1-0.07 0.25 1.38 1.38 0 0 1-0.09 0.23 0.91 0.91 0 0 1-0.07 0.14 0.19 0.19 0 0 1-0.07 0.06h-0.07-0.12l-0.15-0.17-0.73-0.56a3.85 3.85 0 0 1-0.35-0.29 1.74 1.74 0 0 1-0.22-0.27 1 1 0 0 1-0.11-0.26 0.93 0.93 0 0 1 0-0.29 1.7 1.7 0 0 1-0.24 0.23 1.25 1.25 0 0 1-0.28 0.15 1.72 1.72 0 0 1-0.36 0.09 3.63 3.63 0 0 1-0.5 0h-1.42m3.38-7.59a5.28 5.28 0 0 1-0.67-0.42 1.41 1.41 0 0 1-0.38-0.4 0.83 0.83 0 0 1-0.17-0.43 1.45 1.45 0 0 1 0-0.51v-0.2c0-0.06 0-0.12 0.07-0.18a0.61 0.61 0 0 1 0.07-0.14l0.07-0.09h0.06 0.09 0.14 0.2a0.83 0.83 0 0 1 0.31 0.07c0.06 0 0.09 0.07 0.08 0.11a0.13 0.13 0 0 1 0 0.08 0.36 0.36 0 0 0-0.08 0.09 0.76 0.76 0 0 0-0.07 0.13 0.78 0.78 0 0 0 0 0.18 0.38 0.38 0 0 0 0 0.15 0.39 0.39 0 0 0 0 0.14 0.68 0.68 0 0 0 0.12 0.13 1.28 1.28 0 0 0 0.21 0.16l3.51-1.17a0.58 0.58 0 0 1 0.2 0 0.13 0.13 0 0 1 0.11 0 0.3 0.3 0 0 1 0 0.16 1.89 1.89 0 0 1 0 0.29v0.28a0.38 0.38 0 0 1-0.06 0.17 0.18 0.18 0 0 1-0.08 0.09l-0.13 0.05-1.58 0.49-0.5 0.16-0.51 0.13 0.48 0.23 0.48 0.25 1.43 0.76a0.27 0.27 0 0 1 0.08 0.07 0.39 0.39 0 0 1 0 0.09 1 1 0 0 1 0 0.17v0.28a2.24 2.24 0 0 1 0 0.27 0.45 0.45 0 0 1-0.06 0.15 0.09 0.09 0 0 1-0.09 0 0.47 0.47 0 0 1-0.23 0l-3.1-1.79zm-0.82-4h-0.07a0.12 0.12 0 0 1 0-0.08 0.49 0.49 0 0 1 0-0.15 1.44 1.44 0 0 1 0-0.24v-0.25-0.15a0.36 0.36 0 0 1 0-0.09h0.07l4-0.12v-1.06c-0.59-0.06-1.1-0.11-1.53-0.18a8.37 8.37 0 0 1-1.13-0.2 4.1 4.1 0 0 1-0.77-0.25 1.83 1.83 0 0 1-0.48-0.33 1.06 1.06 0 0 1-0.26-0.43 2.79 2.79 0 0 1-0.08-0.55 0.34 0.34 0 0 1 0-0.1 0.2 0.2 0 0 1 0.06-0.07h0.12 0.19a1.2 1.2 0 0 1 0.27 0h0.15a0.12 0.12 0 0 1-0.02 0.04 0.14 0.14 0 0 1 0 0.07 0.55 0.55 0 0 0 0.06 0.22 0.52 0.52 0 0 0 0.19 0.21 2.05 2.05 0 0 0 0.41 0.18 6.06 6.06 0 0 0 0.68 0.17l1 0.14c0.4 0.05 0.88 0.09 1.44 0.14a0.54 0.54 0 0 1 0.27 0.08 0.31 0.31 0 0 1 0.09 0.2l0.07 2.43a0.25 0.25 0 0 1-0.07 0.21 0.33 0.33 0 0 1-0.24 0.09l-4.42 0.07zm0.36-5.07h-0.16-0.11-0.09-0.09a0.88 0.88 0 0 1-0.14-0.14c-0.06-0.07-0.12-0.16-0.19-0.26s-0.12-0.23-0.18-0.37a4.49 4.49 0 0 1-0.13-0.47 2.44 2.44 0 0 1 0-0.93 1.77 1.77 0 0 1 0.33-0.77 2.05 2.05 0 0 1 0.68-0.58 3.46 3.46 0 0 1 1-0.36 3.73 3.73 0 0 1 1.14-0.05 2.24 2.24 0 0 1 0.89 0.31 1.87 1.87 0 0 1 0.63 0.62 2.25 2.25 0 0 1 0.35 0.87 1.87 1.87 0 0 1 0 0.4v0.37a1.55 1.55 0 0 1-0.07 0.31 0.77 0.77 0 0 1-0.09 0.2l-0.07 0.09a0.29 0.29 0 0 1-0.08 0 0.34 0.34 0 0 1-0.12 0h-0.17-0.2a0.56 0.56 0 0 1-0.13 0 0.11 0.11 0 0 1-0.08 0 0.06 0.06 0 0 1 0-0.06 0.2 0.2 0 0 1 0-0.15l0.1-0.26a2 2 0 0 0 0.14-0.21 1.47 1.47 0 0 0 0-0.46 1.14 1.14 0 0 0-0.22-0.5 1.19 1.19 0 0 0-0.41-0.32 2 2 0 0 0-0.58-0.14 3.09 3.09 0 0 0-0.72 0.06 2.54 2.54 0 0 0-0.72 0.23 1.6 1.6 0 0 0-0.47 0.35 1.11 1.11 0 0 0-0.22 0.45 1.23 1.23 0 0 0 0 0.54 1.4 1.4 0 0 0 0.15 0.45 2.23 2.23 0 0 0 0.2 0.3 1.11 1.11 0 0 0 0.18 0.19 0.38 0.38 0 0 1 0.09 0.13s0 0.05 0 0.06 0 0 0 0.05h-0.13-0.21m-0.19-11.73-0.35-0.36a1.69 1.69 0 0 0-0.27-0.4 0.8 0.8 0 0 0-0.25-0.16 0.63 0.63 0 0 0-0.27 0 1 1 0 0 0-0.28 0.1 1.08 1.08 0 0 0-0.23 0.18 0.67 0.67 0 0 0-0.1 0.28 0.74 0.74 0 0 0 0 0.3 1.41 1.41 0 0 0 0.18 0.43l0.25 0.47 1.32-0.84zm-3.07 2.81a0.11 0.11 0 0 1-0.08 0s0 0-0.08-0.05l-0.09-0.12a1.6 1.6 0 0 1-0.13-0.21l-0.1-0.21a0.43 0.43 0 0 1 0-0.15 0.17 0.17 0 0 1 0-0.1 0.08 0.08 0 0 1 0-0.05l1.62-0.88-0.17-0.33a1 1 0 0 0-0.21-0.28 0.46 0.46 0 0 0-0.23-0.12 0.85 0.85 0 0 0-0.29 0h-0.36l-1.22 0.33a0.13 0.13 0 0 1-0.09 0s-0.06 0-0.09-0.05a0.75 0.75 0 0 1-0.11-0.13c0-0.06-0.08-0.14-0.13-0.23a2.59 2.59 0 0 1-0.12-0.25 0.37 0.37 0 0 1 0-0.15 0.22 0.22 0 0 1 0-0.09h0.09 0.17l1-0.14h0.36a2.53 2.53 0 0 1 0.3 0 1 1 0 0 1 0.26 0.09 0.64 0.64 0 0 1 0.22 0.14 2.3 2.3 0 0 1 0-0.45 1.23 1.23 0 0 1 0.08-0.39 1.19 1.19 0 0 1 0.22-0.33 1.28 1.28 0 0 1 0.36-0.26 1.46 1.46 0 0 1 0.59-0.19 1.24 1.24 0 0 1 0.57 0.08 1.72 1.72 0 0 1 0.53 0.36 3.54 3.54 0 0 1 0.55 0.79l0.57 1.07a0.29 0.29 0 0 1 0 0.22 0.29 0.29 0 0 1-0.17 0.18l-3.82 1.9zm-0.53-8.1-2.15 0.83 0.82 1.1 1.33-1.93zm-1.47 4a0.66 0.66 0 0 1-0.14 0.17 0.15 0.15 0 0 1-0.11 0.06 0.31 0.31 0 0 1-0.13-0.09l-0.3-0.11-0.18-0.24a0.56 0.56 0 0 1-0.08-0.15 0.1 0.1 0 0 1 0-0.09 0.1 0.1 0 0 1 0-0.08l0.57-0.87-1.09-1.47-1 0.35h-0.1-0.09a0.48 0.48 0 0 1-0.12-0.1l-0.17-0.21-0.12-0.24a0.24 0.24 0 0 1 0-0.15 0.16 0.16 0 0 1 0.08-0.09l0.21-0.09 4.39-1.49h0.12a0.25 0.25 0 0 1 0.11 0 0.79 0.79 0 0 1 0.13 0.13c0.06 0.06 0.12 0.14 0.2 0.24l0.22 0.29a0.85 0.85 0 0 1 0.1 0.18 0.21 0.21 0 0 1 0 0.13 0.41 0.41 0 0 1-0.06 0.11l-2.44 3.81zm-2-7.28a1.06 1.06 0 0 0 0.16-0.23 0.5 0.5 0 0 0 0-0.24 0.59 0.59 0 0 0-0.09-0.24 1.4 1.4 0 0 0-0.24-0.29l-0.51-0.22-0.87 0.93 0.41 0.39a1 1 0 0 0 0.29 0.2 0.59 0.59 0 0 0 0.26 0 0.49 0.49 0 0 0 0.23-0.06 0.62 0.62 0 0 0 0.2-0.16m-1.25 1.72a1.28 1.28 0 0 0 0.17-0.26 0.69 0.69 0 0 0 0-0.28 0.73 0.73 0 0 0-0.11-0.3 1.28 1.28 0 0 0-0.3-0.34l-0.38-0.41-1 1 0.53 0.49a1 1 0 0 0 0.29 0.21 0.7 0.7 0 0 0 0.27 0.08 0.65 0.65 0 0 0 0.27 0 0.71 0.71 0 0 0 0.24-0.17m0.78 0.69a1.68 1.68 0 0 1-0.37 0.3 1.09 1.09 0 0 1-0.41 0.13 1.19 1.19 0 0 1-0.42 0 1.79 1.79 0 0 1-0.42-0.12 3.46 3.46 0 0 1-0.41-0.21 5.25 5.25 0 0 1-0.42-0.34l-0.95-0.9a0.29 0.29 0 0 1-0.11-0.2 0.31 0.31 0 0 1 0.1-0.24l2.94-3.15a0.29 0.29 0 0 1 0.23-0.11 0.3 0.3 0 0 1 0.21 0.09l0.9 0.84a2.88 2.88 0 0 1 0.51 0.59 1.39 1.39 0 0 1 0.24 0.53 1.1 1.1 0 0 1 0 0.51 1.13 1.13 0 0 1-0.3 0.48 1.32 1.32 0 0 1-0.26 0.22 0.86 0.86 0 0 1-0.3 0.12 1.08 1.08 0 0 1-0.31 0 1.25 1.25 0 0 1-0.32-0.08 1.55 1.55 0 0 1 0.19 0.36 1.32 1.32 0 0 1 0.06 0.39 1.44 1.44 0 0 1-0.09 0.4 1.33 1.33 0 0 1-0.26 0.39m-4.06-4.79a3.84 3.84 0 0 0 0.33-0.63 1.38 1.38 0 0 0 0.13-0.57 1 1 0 0 0-0.13-0.51 1.35 1.35 0 0 0-0.45-0.44 1.14 1.14 0 0 0-1.13-0.13 1.69 1.69 0 0 0-0.48 0.34 3.18 3.18 0 0 0-0.42 0.52 3.63 3.63 0 0 0-0.34 0.64 1.38 1.38 0 0 0-0.13 0.57 0.93 0.93 0 0 0 0.13 0.51 1.45 1.45 0 0 0 0.45 0.44 1.27 1.27 0 0 0 0.59 0.22 1.23 1.23 0 0 0 0.54-0.09 1.6 1.6 0 0 0 0.49-0.34 3.77 3.77 0 0 0 0.42-0.53m0.91 0.53a3.84 3.84 0 0 1-0.73 0.84 2.3 2.3 0 0 1-0.83 0.44 2 2 0 0 1-0.91 0 2.73 2.73 0 0 1-1-0.41 3.21 3.21 0 0 1-0.76-0.68 1.83 1.83 0 0 1-0.35-0.78 2 2 0 0 1 0.08-0.9 3.68 3.68 0 0 1 0.5-1 3.23 3.23 0 0 1 0.72-0.82 2.1 2.1 0 0 1 0.82-0.43 1.87 1.87 0 0 1 0.91 0 2.65 2.65 0 0 1 1 0.41 2.93 2.93 0 0 1 0.75 0.67 1.72 1.72 0 0 1 0.35 0.78 2 2 0 0 1-0.06 0.89 3.73 3.73 0 0 1-0.49 1m-3.91-4.78a0.87 0.87 0 0 1-0.09 0.17 0.29 0.29 0 0 1-0.08 0.1 0.15 0.15 0 0 1-0.07 0 0.1 0.1 0 0 1-0.07 0l-1.49-0.68-1.67 3.62a0.1 0.1 0 0 1 0 0.06h-0.09-0.15l-0.23-0.1-0.21-0.11a0.36 0.36 0 0 1-0.13-0.09 0.21 0.21 0 0 1-0.06-0.08s0 0 0-0.07l1.86-4.09a0.33 0.33 0 0 1 0.17-0.18 0.31 0.31 0 0 1 0.23 0l2.14 1s0.06 0.06 0.06 0.13a0.76 0.76 0 0 1-0.1 0.31m-5.91-0.26a3.16 3.16 0 0 0 0.13-0.7 1.55 1.55 0 0 0-0.05-0.58 1 1 0 0 0-0.28-0.44 1.37 1.37 0 0 0-0.55-0.28 1.18 1.18 0 0 0-0.64 0 1.06 1.06 0 0 0-0.48 0.25 1.54 1.54 0 0 0-0.36 0.46 3.8 3.8 0 0 0-0.24 0.62 4.32 4.32 0 0 0-0.14 0.67 1.53 1.53 0 0 0 0 0.58 1 1 0 0 0 0.28 0.45 1.4 1.4 0 0 0 0.56 0.28 1.26 1.26 0 0 0 0.63 0 1.2 1.2 0 0 0 0.49-0.25 1.78 1.78 0 0 0 0.36-0.48 3.59 3.59 0 0 0 0.29-0.58m1 0.24a3.66 3.66 0 0 1-0.45 1 2.22 2.22 0 0 1-0.66 0.76 2.09 2.09 0 0 1-0.86 0.29 2.71 2.71 0 0 1-1-0.11 3.08 3.08 0 0 1-0.93-0.42 1.74 1.74 0 0 1-0.57-0.64 2 2 0 0 1-0.2-0.87 4.13 4.13 0 0 1 0.17-1.13 3.83 3.83 0 0 1 0.44-1 2.3 2.3 0 0 1 0.66-0.66 2 2 0 0 1 0.86-0.29 2.55 2.55 0 0 1 1 0.11 3.12 3.12 0 0 1 0.92 0.41 1.71 1.71 0 0 1 0.56 0.64 2 2 0 0 1 0.21 0.86 3.6 3.6 0 0 1-0.16 1.12m-6.38 0.85a0.11 0.11 0 0 1 0 0.06 0.19 0.19 0 0 1-0.09 0h-0.15-0.25-0.24-0.15a0.14 0.14 0 0 1-0.07-0.06 0.06 0.06 0 0 1 0-0.07l0.38-4-1.06-0.1c-0.13 0.58-0.25 1.07-0.36 1.5s-0.23 0.79-0.35 1.1a3.87 3.87 0 0 1-0.34 0.73 1.5 1.5 0 0 1-0.39 0.43 1 1 0 0 1-0.46 0.2 2.41 2.41 0 0 1-0.55 0h-0.1l-0.06-0.06a0.44 0.44 0 0 1 0-0.13 1.18 1.18 0 0 1 0-0.19v-0.26a0.27 0.27 0 0 1 0-0.15 0.16 0.16 0 0 1 0.11-0.16h0.08a0.6 0.6 0 0 0 0.23 0 0.79 0.79 0 0 0 0.23-0.17 1.82 1.82 0 0 0 0.22-0.38 3.17 3.17 0 0 0 0.25-0.66c0.09-0.26 0.18-0.6 0.28-1s0.2-0.87 0.31-1.41a0.62 0.62 0 0 1 0.12-0.27 0.28 0.28 0 0 1 0.21 0l2.42 0.23a0.26 0.26 0 0 1 0.2 0.1 0.29 0.29 0 0 1 0 0.24l-0.42 4.48zm-7.42-4.16-0.54 2.14 1.4-0.1-0.86-2.04zm2.54 3.44c0 0.09 0.06 0.17 0.07 0.22a0.12 0.12 0 0 1 0 0.12 0.2 0.2 0 0 1-0.14 0.06h-0.3-0.3-0.17-0.08a0.56 0.56 0 0 1 0-0.08l-0.4-1-1.92 0.24-0.24 1a0.3 0.3 0 0 1 0 0.1 0.14 0.14 0 0 1-0.07 0.06h-0.16-0.26-0.28a0.2 0.2 0 0 1-0.14-0.05 0.14 0.14 0 0 1 0-0.12 0.73 0.73 0 0 1 0-0.22l1.16-4.47a0.28 0.28 0 0 1 0-0.11 0.22 0.22 0 0 1 0.09-0.07 0.69 0.69 0 0 1 0.18 0h0.32 0.35 0.22a0.2 0.2 0 0 1 0.11 0.06 0.36 0.36 0 0 1 0.06 0.11l1.9 4.15zm-5.48 0.76a0.11 0.11 0 0 1 0 0.08l-0.06 0.07-0.15 0.06a0.79 0.79 0 0 1-0.23 0.07 1.29 1.29 0 0 1-0.24 0.05h-0.15a0.17 0.17 0 0 1-0.1 0 0.13 0.13 0 0 1 0-0.06l-0.53-1.94-1.79 0.47 0.48 1.94a0.09 0.09 0 0 1 0 0.07l-0.07 0.07-0.14 0.07-0.23 0.07h-0.24a0.53 0.53 0 0 1-0.16 0 0.19 0.19 0 0 1-0.09 0 0.07 0.07 0 0 1 0-0.06l-1.18-4.53a0.2 0.2 0 0 1 0-0.07l0.06-0.07 0.15-0.06 0.23-0.08h0.24 0.16a0.12 0.12 0 0 1 0.09 0v0.06l0.44 1.76 1.79-0.45-0.44-1.76a0.09 0.09 0 0 1 0-0.07 0.19 0.19 0 0 1 0.06-0.07l0.14-0.07 0.24-0.07 0.24-0.05h0.15a0.12 0.12 0 0 1 0.09 0h0.05l1.19 4.57zm-12.26 0.49-0.43 0.31a1.55 1.55 0 0 0-0.39 0.3 0.6 0.6 0 0 0-0.14 0.26 0.5 0.5 0 0 0 0 0.27 1.59 1.59 0 0 0 0.12 0.27 0.85 0.85 0 0 0 0.2 0.22 0.64 0.64 0 0 0 0.25 0.11 0.77 0.77 0 0 0 0.3 0 1.9 1.9 0 0 0 0.42-0.2l0.45-0.29-0.78-1.25zm3 2.88a0.09 0.09 0 0 1 0 0.07 0.12 0.12 0 0 1 0 0.08l-0.11 0.11-0.2 0.14-0.21 0.12-0.15 0.06h-0.1a0.08 0.08 0 0 1 0-0.05l-1-1.56-0.31 0.2a0.94 0.94 0 0 0-0.27 0.23 0.61 0.61 0 0 0-0.11 0.23 0.93 0.93 0 0 0 0 0.29 2.7 2.7 0 0 0 0.06 0.36l0.26 1.1v0.1a0.37 0.37 0 0 1-0.06 0.1l-0.12 0.11-0.22 0.14a1.75 1.75 0 0 1-0.24 0.14l-0.15 0.06h-0.17-0.05v-0.09a1.22 1.22 0 0 1-0.05-0.17l-0.2-1a1.72 1.72 0 0 1-0.05-0.36 1.6 1.6 0 0 1 0-0.31 2 2 0 0 1 0.07-0.26 1 1 0 0 1 0.13-0.23 1.87 1.87 0 0 1-0.44 0.08 1.07 1.07 0 0 1-0.4 0 1 1 0 0 1-0.34-0.2 1.24 1.24 0 0 1-0.29-0.34 1.52 1.52 0 0 1-0.23-0.57 1.14 1.14 0 0 1 0.05-0.58 1.78 1.78 0 0 1 0.32-0.56 3.74 3.74 0 0 1 0.75-0.6l1-0.64a0.33 0.33 0 0 1 0.21 0 0.28 0.28 0 0 1 0.2 0.16l2.42 3.64zm-8 1.06 0.88 2 1.02-0.89-1.9-1.11zm4.1 1.2a0.87 0.87 0 0 1 0.19 0.13 0.14 0.14 0 0 1 0.06 0.11 0.27 0.27 0 0 1-0.08 0.13c0 0.06-0.12 0.12-0.21 0.21a2.12 2.12 0 0 1-0.24 0.19l-0.13 0.1a0.2 0.2 0 0 1-0.1 0h-0.08l-0.91-0.52-1.38 1.23 0.41 0.93a0.44 0.44 0 0 1 0 0.1 0.1 0.1 0 0 1 0 0.09 0.5 0.5 0 0 1-0.1 0.13c0 0.05-0.11 0.11-0.19 0.19l-0.21 0.17a0.24 0.24 0 0 1-0.14 0.05 0.15 0.15 0 0 1-0.09-0.07 0.92 0.92 0 0 1-0.1-0.2l-1.78-4.29a0.22 0.22 0 0 1 0-0.22l0.12-0.15 0.23-0.21 0.27-0.23a0.69 0.69 0 0 1 0.18-0.12 0.3 0.3 0 0 1 0.12 0l0.12 0.05 4.04 2.2zm-3.89 3.94a0.07 0.07 0 0 1 0 0.06 0.18 0.18 0 0 1 0 0.1l-0.07 0.13a1.5 1.5 0 0 1-0.14 0.2l-0.17 0.18a0.47 0.47 0 0 1-0.11 0.1 0.13 0.13 0 0 1-0.09 0 0.08 0.08 0 0 1-0.07 0l-1.58-1.24-1.15 1.45 1.56 1.25a0.07 0.07 0 0 1 0 0.06s0 0.05 0 0.09a0.61 0.61 0 0 1-0.07 0.14 1.5 1.5 0 0 1-0.14 0.2 1.52 1.52 0 0 1-0.17 0.18 0.35 0.35 0 0 1-0.12 0.1 0.12 0.12 0 0 1-0.08 0 0.09 0.09 0 0 1-0.07 0l-3.62-2.9a0.15 0.15 0 0 1-0.05-0.06 0.2 0.2 0 0 1 0-0.1s0-0.08 0.07-0.14l0.14-0.19 0.16-0.19a0.91 0.91 0 0 1 0.13-0.1h0.08 0.07l1.42 1.14 1.15-1.45-1.39-1.14s0 0 0-0.06a0.18 0.18 0 0 1 0-0.1 0.88 0.88 0 0 1 0.07-0.13 1.15 1.15 0 0 1 0.15-0.2l0.16-0.19 0.11-0.1h0.1 0.07l3.65 2.91zm-4.8 4.13a1.15 1.15 0 0 0-0.32-0.12 0.57 0.57 0 0 0-0.29 0 0.64 0.64 0 0 0-0.28 0.17 1.63 1.63 0 0 0-0.3 0.42l-0.32 0.54 1.38 0.77 0.29-0.53a1.59 1.59 0 0 0 0.2-0.5 0.69 0.69 0 0 0 0-0.33 0.58 0.58 0 0 0-0.15-0.25 0.68 0.68 0 0 0-0.21-0.17m0.43-0.95a2.35 2.35 0 0 1 0.51 0.41 1.39 1.39 0 0 1 0.29 0.55 1.69 1.69 0 0 1 0 0.71 3.44 3.44 0 0 1-0.39 1l-0.6 1.08-0.08 0.1a0.13 0.13 0 0 1-0.09 0 0.25 0.25 0 0 1-0.12 0 0.37 0.37 0 0 1-0.14 0l-3.93-2.2v-0.09a0.64 0.64 0 0 1 0.06-0.16 1.46 1.46 0 0 1 0.11-0.21 1.72 1.72 0 0 1 0.12-0.21l0.1-0.12a0.12 0.12 0 0 1 0.08 0 0.11 0.11 0 0 1 0.08 0l1.46 0.82 0.34-0.61a3.46 3.46 0 0 1 0.52-0.73 1.48 1.48 0 0 1 0.53-0.35 1.28 1.28 0 0 1 0.58-0.08 1.53 1.53 0 0 1 0.62 0.19m-1.14 5.16s0 0 0.06 0 0 0.05 0 0.09a1.37 1.37 0 0 1 0 0.16 2.16 2.16 0 0 1-0.08 0.23 1.85 1.85 0 0 1-0.09 0.23 0.76 0.76 0 0 1-0.07 0.13 0.21 0.21 0 0 1-0.08 0.06 0.08 0.08 0 0 1-0.07 0l-3.77-1.31-0.35 1c0.53 0.27 1 0.51 1.36 0.72s0.71 0.42 1 0.6a5.45 5.45 0 0 1 0.63 0.52 1.49 1.49 0 0 1 0.32 0.48 1 1 0 0 1 0.08 0.5 2 2 0 0 1-0.12 0.54 0.56 0.56 0 0 1-0.05 0.08 0.1 0.1 0 0 1-0.08 0.05 0.24 0.24 0 0 1-0.12 0l-0.19-0.06-0.23-0.1a0.37 0.37 0 0 1-0.14-0.08 0.12 0.12 0 0 1-0.09-0.05 0.17 0.17 0 0 1 0-0.07 0.61 0.61 0 0 0 0-0.23 0.52 0.52 0 0 0-0.11-0.26 1.81 1.81 0 0 0-0.31-0.32 4.87 4.87 0 0 0-0.57-0.4q-0.36-0.22-0.9-0.51c-0.36-0.2-0.79-0.41-1.28-0.66a0.5 0.5 0 0 1-0.23-0.17 0.28 0.28 0 0 1 0-0.22l0.82-2.29a0.28 0.28 0 0 1 0.15-0.17 0.29 0.29 0 0 1 0.24 0l4.27 1.51zm-5.79 6.22 1.94 1.06 0.24-1.38-2.18 0.32zm4-1.61a1.11 1.11 0 0 1 0.23 0s0.09 0 0.11 0.05 0 0.08 0 0.15 0 0.17 0 0.29-0.05 0.23-0.06 0.3 0 0.13 0 0.17l-0.06 0.06a0.14 0.14 0 0 1-0.09 0l-1 0.15-0.32 1.84 0.9 0.47h0.08a0.19 0.19 0 0 1 0 0.09 0.43 0.43 0 0 1 0 0.16 1.51 1.51 0 0 1 0 0.26 1.91 1.91 0 0 1-0.06 0.27 0.18 0.18 0 0 1-0.07 0.13 0.19 0.19 0 0 1-0.13 0l-0.2-0.1-4.2-2.18-0.1-0.07a0.23 0.23 0 0 1 0-0.11 0.6 0.6 0 0 1 0-0.18v-0.31s0-0.27 0.07-0.36a1.67 1.67 0 0 1 0.06-0.2 0.36 0.36 0 0 1 0.08-0.09 0.25 0.25 0 0 1 0.13 0l4.63-0.79zm-3.84 5.76a0.79 0.79 0 0 0-0.43 0.08 0.67 0.67 0 0 0-0.25 0.21 0.65 0.65 0 0 0-0.11 0.29 1.39 1.39 0 0 0 0 0.3v0.43h1.67v-0.45a1.22 1.22 0 0 0-0.1-0.37 0.62 0.62 0 0 0-0.17-0.26 0.73 0.73 0 0 0-0.28-0.17 1 1 0 0 0-0.35-0.06m0-1.06a2.06 2.06 0 0 1 0.73 0.15 1.52 1.52 0 0 1 0.53 0.4 1.58 1.58 0 0 1 0.32 0.62 2.77 2.77 0 0 1 0.09 0.85v0.46h1.58a0.09 0.09 0 0 1 0.06 0 0.15 0.15 0 0 1 0 0.09 1 1 0 0 1 0 0.15 1.89 1.89 0 0 1 0 0.24 1.69 1.69 0 0 1 0 0.25 0.57 0.57 0 0 1 0 0.15 0.22 0.22 0 0 1 0 0.08h-0.07l-4.45-0.12a0.35 0.35 0 0 1-0.26-0.1 0.37 0.37 0 0 1-0.09-0.25v-1.17-0.33a3.63 3.63 0 0 1 0.06-0.38 2 2 0 0 1 0.18-0.44 1.29 1.29 0 0 1 0.31-0.38 1.14 1.14 0 0 1 0.43-0.24 1.88 1.88 0 0 1 0.55-0.07m3 4.81h0.19 0.12a0.15 0.15 0 0 1 0.07 0 0.09 0.09 0 0 1 0 0.07l0.29 2.46a0.33 0.33 0 0 1-0.06 0.22 0.28 0.28 0 0 1-0.22 0.12l-4.29 0.49a0.26 0.26 0 0 1-0.25-0.06 0.32 0.32 0 0 1-0.1-0.19l-0.23-2.4a0.13 0.13 0 0 1 0-0.06 0.15 0.15 0 0 1 0.06-0.05 0.33 0.33 0 0 1 0.12 0h0.19 0.18 0.12a0.11 0.11 0 0 1 0.07 0 0.09 0.09 0 0 1 0 0.06l0.21 1.75 1.19-0.14-0.13-1.5a0.11 0.11 0 0 1 0-0.07l0.06-0.05a0.23 0.23 0 0 1 0.11 0h0.18 0.3 0.07v0.06l0.17 1.48 1.41-0.18-0.2-1.77a0.17 0.17 0 0 1 0-0.07 0.15 0.15 0 0 1 0.06-0.05 0.33 0.33 0 0 1 0.12 0h0.18m-2.65 6.59 0.32 1.11 1-0.15 0.78-0.08h0.59 0.44l0.36 0.02 0.26 0.09-0.56-1.93-3.19 0.94zm4.66-3h0.06a0.13 0.13 0 0 1 0.07 0 0.44 0.44 0 0 1 0.06 0.12l0.07 0.2c0 0.09 0 0.15 0.05 0.21a0.76 0.76 0 0 1 0 0.14 0.19 0.19 0 0 1 0 0.08h-0.06l-1.12 0.32 0.9 3.16 1.11-0.23h0.07a0.19 0.19 0 0 1 0.07 0.06l0.06 0.12 0.07 0.2c0 0.09 0 0.16 0.05 0.22a0.66 0.66 0 0 1 0 0.13 0.15 0.15 0 0 1 0 0.08h-0.06l-1.71 0.49a0.15 0.15 0 0 1-0.16 0 0.19 0.19 0 0 1-0.09-0.12l-0.07-0.18a1.58 1.58 0 0 0-0.31-0.09 1.21 1.21 0 0 0-0.36-0.07h-0.47-0.66c-0.25 0-0.55 0.06-0.9 0.11s-0.75 0.11-1.21 0.19a0.5 0.5 0 0 1-0.26 0 0.21 0.21 0 0 1-0.13-0.17l-0.7-2.43a0.24 0.24 0 0 1 0-0.22 0.34 0.34 0 0 1 0.2-0.14l3.67-1-0.12-0.4a0.17 0.17 0 0 1 0-0.16s0.07-0.06 0.13-0.08l1.75-0.54zm0.25 6 0.17-0.07h0.12 0.08 0.05l1.06 2.25a0.34 0.34 0 0 1 0 0.22 0.27 0.27 0 0 1-0.18 0.18l-3.9 1.84a0.31 0.31 0 0 1-0.26 0 0.35 0.35 0 0 1-0.16-0.16l-1-2.24a0.13 0.13 0 0 1 0-0.06 0.25 0.25 0 0 1 0-0.07l0.1-0.08 0.17-0.09 0.17-0.07h0.12 0.04l0.76 1.59 1.09-0.51-0.64-1.35a0.15 0.15 0 0 1 0-0.07v-0.07l0.1-0.08 0.16-0.08 0.17-0.07h0.11 0.08a0.12 0.12 0 0 1 0 0.05l0.63 1.36 1.26-0.6-0.76-1.61a0.09 0.09 0 0 1 0-0.07s0 0 0-0.07l0.1-0.08 0.36 0.01m0.79 8.19a1.57 1.57 0 0 0 0.39 0.32 0.86 0.86 0 0 0 0.39 0.13 0.94 0.94 0 0 0 0.37 0 1.29 1.29 0 0 0 0.35-0.18 1.72 1.72 0 0 0 0.34-0.31 0.8 0.8 0 0 0 0.18-0.34 0.9 0.9 0 0 0 0-0.4 1.5 1.5 0 0 0-0.18-0.48l-1.84 1.26zm-0.21-2.34a1.59 1.59 0 0 0-0.33 0.29 0.8 0.8 0 0 0-0.18 0.34 0.89 0.89 0 0 0 0 0.4 1.5 1.5 0 0 0 0.18 0.48l1.86-1.29a1.43 1.43 0 0 0-0.39-0.33 1 1 0 0 0-0.77-0.08 1.39 1.39 0 0 0-0.36 0.19m-0.63-0.85a1.91 1.91 0 0 1 0.7-0.32 1.65 1.65 0 0 1 0.7 0 1.91 1.91 0 0 1 0.69 0.3 3.2 3.2 0 0 1 0.67 0.62l0.46-0.33a0.11 0.11 0 0 1 0.08 0 0.12 0.12 0 0 1 0.08 0l0.11 0.1 0.14 0.2c0.05 0.08 0.1 0.14 0.13 0.2a0.69 0.69 0 0 1 0.06 0.13 0.2 0.2 0 0 1 0 0.1 0.13 0.13 0 0 1-0.05 0.06l-0.47 0.33a3.32 3.32 0 0 1 0.39 0.81 1.7 1.7 0 0 1 0.07 0.73 1.49 1.49 0 0 1-0.25 0.65 2.42 2.42 0 0 1-0.58 0.57 1.87 1.87 0 0 1-0.68 0.3 1.6 1.6 0 0 1-0.69 0 1.89 1.89 0 0 1-0.69-0.29 3 3 0 0 1-0.67-0.62l-0.45 0.31h-0.07a0.25 0.25 0 0 1-0.08 0 0.57 0.57 0 0 1-0.1-0.11 1 1 0 0 1-0.15-0.19l-0.13-0.2a0.53 0.53 0 0 1-0.06-0.14 0.1 0.1 0 0 1 0-0.09l0.46-0.33a3.49 3.49 0 0 1-0.35-0.79 1.7 1.7 0 0 1-0.07-0.73 1.36 1.36 0 0 1 0.24-0.65 2.44 2.44 0 0 1 0.56-0.62" fill="#fff"/>
<path class="cls-1" d="m53.603 61.875-0.15-0.18a2.77 2.77 0 0 0-2.27-0.76 7.39 7.39 0 0 0-1.76 0.24c-0.57 0.14-1.28 0.37-2.13 0.66a2.06 2.06 0 0 0-0.35-0.52 4.16 4.16 0 0 0-3.23-1 24.36 24.36 0 0 0-8 1.81 15.94 15.94 0 0 1-5.53 1.2 9.45 9.45 0 0 1-5.25-1.74l-0.69-0.41-0.87-0.52-0.16 1-1.8 10.56 0.65 0.28 0.31-1.83 1.47-8.9 0.69 0.41a11 11 0 0 0 3.85 1.6 10.1 10.1 0 0 0 1.82 0.16 16.53 16.53 0 0 0 5.76-1.25 23.79 23.79 0 0 1 7.76-1.75 6.47 6.47 0 0 1 1.31 0.11 2.44 2.44 0 0 1 1.42 0.69 1.46 1.46 0 0 1 0.38 0.93c1.05-0.35 2-0.69 2.76-0.86a7 7 0 0 1 1.59-0.22h0.47l0.3 0.05a2.12 2.12 0 0 1 0.64 0.23c0.21 0.11 0.63-0.28 0.63-0.28l-1.83 12 0.61-0.26c0.05-0.29 0.09-0.59 0.14-0.91 0.2-1.23 0.36-2.12 0.36-2.13v-0.23-0.28c0.14-0.85 0.27-1.69 0.4-2.48 0.37-2.36 0.69-4.28 0.73-4.56v-0.23-0.31l-0.03-0.32z" fill="#0066b3"/>
<path class="cls-2" d="m37.933 65.595a27.63 27.63 0 0 1-0.78-55.24h0.81a27.62 27.62 0 0 1 0.78 55.23h-0.81m0 0.68h0.83a28.31 28.31 0 0 0-0.8-56.61h-0.83a28.31 28.31 0 0 0 0.8 56.62" fill="#fff"/>
<path class="cls-2" d="m43.723 60.935a3.58 3.58 0 0 1 2.71 0.79 1.46 1.46 0 0 1 0.38 0.95c1.06-0.36 2-0.7 2.78-0.87a7 7 0 0 1 1.59-0.22c1.22 0 1.51 0.25 1.6 0.34l0.44-0.32-2.46 15.64-0.66-0.37a2.43 2.43 0 0 0-1.17-0.27 14.52 14.52 0 0 0-4.64 1.33 16.46 16.46 0 0 1-3.36 1.16 6.75 6.75 0 0 1-0.94 0.08c-1.45 0-1.68-0.78-1.71-1.17l0.09-0.81-1.16 0.44c-0.77 0.3-1.5 0.58-2.14 0.8a12.34 12.34 0 0 1-4 0.61 17.09 17.09 0 0 1-9.4-2.64l-0.26-0.19 2.39-14.45 0.69 0.41a10.13 10.13 0 0 0 5.73 1.76 16.53 16.53 0 0 0 5.76-1.25 23.84 23.84 0 0 1 7.74-1.75" fill="#fff"/>
<path class="cls-3" d="m39.613 72.025-0.79 5.68c-0.21 1 1 1 2 0.87 2.59-0.39 7.12-3.49 9.5-2.16 0.35-2.83 1-6.45 1-6.45s-0.59-0.82-2.82-0.28-7.21 2.68-8.88 2.34" fill="#ed1c24"/>
<path class="cls-1" d="m51.063 71.595c0.25-1.58 0.51-3.27 0.75-4.77a3.79 3.79 0 0 0-2.94-0.19c-2.17 0.53-6.92 2.55-8.71 2.36l-0.66 4.23c0.2 0.69 1 0.86 2.06 0.77 2.59-0.21 7.11-3.64 9.5-2.4" fill="#0066b3"/>
<path class="cls-4" d="m38.763 78.075c0.16-1.08 1.65-1.12 2.63-1.07s2.8 0 2.95-0.77c0.18-1.06 0.26-2.36 0.26-2.36l-5.18 0.06-0.66 4.14z" fill="#be1e2d"/>
<path class="cls-3" d="m22.013 75.985 1.2-7.18c2.09 1.24 5.37 3 12.07 0.43 5.37-2.06 10.36-2.43 10.12-0.3l-1.1 7.35c0.4-2.52-6 0.49-9.39 1.67-3.65 1.27-9.68 0.35-12.9-2" fill="#ed1c24"/>
<path class="cls-1" d="m35.523 67.745c-6.48 2.48-9.88 0.27-12-1l-0.78 4.65a13.83 13.83 0 0 0 12.8 1.22c3-1.16 8.87-3.18 9.52-1.37 0.23-1.52 0.46-3.13 0.66-4.53-0.83-1.37-5.46-0.8-10.22 1" fill="#0066b3"/>
<path class="cls-5" d="m50.623 42.495c0-0.06-0.12-0.29-0.26-0.6a3 3 0 0 0 0.36 0.18l0.22 0.39a1.55 1.55 0 0 0-0.31 0.07s0 0 0 0m-2.56 0c0-0.53-0.13-0.87-0.29-2a19.48 19.48 0 0 1 0.69 2.19 2.7 2.7 0 0 0-0.4-0.14m-1.14 6.45s0 0 0 0 0 0 0 0.08 0 0 0 0m0 0.71a0.6 0.6 0 0 0 0-0.12 0.3 0.3 0 0 0 0 0.1s0 0 0 0m3.58 3.57-0.58 1.27-0.67-0.32 0.45-1a3.3 3.3 0 0 0 0.85 0m0.62-0.18-0.16 0.34-0.37-0.17a2.36 2.36 0 0 0 0.53-0.17m-20.25 3.3a0.63 0.63 0 0 1 0.2-0.32 0.65 0.65 0 0 0 0 0.22l-0.2 0.1zm-1.22-6.7s0 0 0 0zm-0.74 0a0.3 0.3 0 0 0 0-0.1 0.45 0.45 0 0 1 0 0.12s0 0 0 0m-3.82-2.24m1.09-2.69-0.76-0.35a1.28 1.28 0 0 0-0.66-0.86 0.71 0.71 0 0 0-0.08-0.77c0.4-0.51 1.08-2 1.84-3.2-0.17 1.29-2.37 3-0.63 4.25 1.14-0.17 1.75-1.53 2.2-3.4 0.22 0.44-1.15 2.37 0.71 3 0.82-0.15 1.42-1.74 1.21-2.93a2.26 2.26 0 0 1 0.26 0.2c0.25-0.27 0.75-0.27 0.93-0.62l0.17 0.11c0.56 0.93 0.6 2.69-0.17 3.33a1.6 1.6 0 0 0 0.67-0.11s0 0-0.1 0.16l-0.07 0.11c-0.43 0.41-0.55 0.52-1.8 0.34a1 1 0 0 0 0.13 0.39c-0.62 0.26-1.63 0.22-1.91 1.92a0.15 0.15 0 0 0-0.06-0.05h-0.05s0 0 0 0-0.08 0-0.09-0.07 0-0.08-0.07-0.1h-0.25l-0.19 0.13c-0.16 0.07-0.14-0.09-0.42 0.31s0 0 0 0.16h-0.07l-0.26-0.13a1 1 0 0 1-0.23-0.1l-0.31-0.09 0.15 0.07 0.35 0.16 0.21 0.09 0.04 0.15-0.84-0.39h-0.05a0.83 0.83 0 0 0-0.2-0.09l-0.31-0.09 0.71-1.53zm26.48-3.59a0.25 0.25 0 0 0 0 0.17l-0.09-0.13a0.78 0.78 0 0 1 0.11-0.28l0.06 0.07a0.38 0.38 0 0 0-0.08 0.17m-2.65 0 0.26 0.1 0.16 0.3h-0.23l-0.19-0.42m-5.43 2.91a1.35 1.35 0 0 1-0.65-0.64 1.6 1.6 0 0 0 0.67 0.11c-0.77-0.64-0.73-2.4-0.17-3.33l0.17-0.11c0.18 0.35 0.68 0.35 0.93 0.62a2.26 2.26 0 0 1 0.26-0.2 19.37 19.37 0 0 0 0.14 2.12 3.09 3.09 0 0 0-1.35 1.43m1.39 6.5zm1.35 4.1-1.32-0.61 0.87-1.95a6.35 6.35 0 0 0 1.24 0.79l-0.79 1.77zm-18.37-5.29v0.11s0 0 0 0a0.3 0.3 0 0 0 0-0.08m23-9.09 0.31 0.09 0.08 0.1-0.32-0.09a0.36 0.36 0 0 0-0.07-0.1m-2.36 0 0.18 0.1 0.2 0.36h-0.17q-0.1-0.24-0.21-0.45m-3.65 9.54v0.28-0.28m0-0.39a0.71 0.71 0 0 0 0 0.14 0.59 0.59 0 0 0 0-0.14m-3.67 6.07 0.6 0.32s-0.18 0.24-0.8 0.24a2.73 2.73 0 0 0-0.06-0.5h0.22m-6-1.26 0.56-0.28a12.86 12.86 0 0 0-0.25 1.47 3.35 3.35 0 0 1-0.55 0 6.38 6.38 0 0 1 0.24-1.2m-3.25 1.53 0.32-0.16a3.49 3.49 0 0 0 0 0.35 0.45 0.45 0 0 1-0.3-0.19m3.74-2.93 0.29 0.13a0.8 0.8 0 0 0 0 0.15l-0.46 0.23c0.06-0.17 0.13-0.34 0.2-0.51m5.9-5.66a3.68 3.68 0 0 0-2.59 0.7 1.69 1.69 0 0 1 2.59-0.7m-1.6 3.87a6 6 0 0 1-1-0.57s0 0 0 0h0.05 0.23a1.41 1.41 0 0 1 0.95 0.46l-0.23 0.11zm-4.6 0h-0.09c0.1-0.11 0.2-0.22 0.29-0.34-0.07 0.11-0.13 0.22-0.2 0.32m0.93 0c0-0.11 0.07-0.22 0.09-0.33v0.33m2.79 1.12 0.35-0.17a5.86 5.86 0 0 1 1.11 1 8 8 0 0 1-1.34-0.66l-0.12-0.15m-0.25-0.63s0 0 0 0v0.03m-1.67-0.8a5.5 5.5 0 0 0 0.16 0.58h-0.08c0-0.18-0.06-0.36-0.08-0.55m3.1-2.1c0.21 0.7 0.61 1.34 2.08 0.68a0.6 0.6 0 0 0 0.13 0.38l-2.24 1.11c0-0.7-0.54-1-1-1.32 0.16-0.22 0-0.32 1-0.9a2.21 2.21 0 0 1 1.14 0 1.11 1.11 0 0 1-1.14 0m2.61 0.67 0.14 0.11h0.06l-0.34 0.17a2.18 2.18 0 0 1 0.14-0.25m-0.17 3.36a14.77 14.77 0 0 0-2-1.31l2.84-1.42a3.47 3.47 0 0 1-0.84 2.73m-8.59-2.09h-0.05l-0.1-0.05 0.24-0.07c0.1 0 0.09 0 0.48-0.06a3.47 3.47 0 0 1-0.37 0.26h-0.1m-1.1-0.51-0.14-0.07s0 0-0.09 0 0 0-0.1 0l-0.13-0.07h-0.09l-0.37-0.28h-0.05-0.1c0.52-0.1 0.76 0 1.18-1-1.32 0.69-2.31-1.81 0.32-1.75 1.24 0.64 1.75 2.32-0.16 3.41h-0.1-0.09-0.09-0.1m-1.3 4.82a0.35 0.35 0 0 1 0-0.11l0.07 0.06-0.07 0.05zm-5.34-8.32a0.89 0.89 0 0 0 0 0.11s0 0-0.06 0v-0.06h0.05m9 10.3a1.17 1.17 0 0 1-0.45-0.67h0.42a3.5 3.5 0 0 0 0 0.66m2.67-2.41a5.82 5.82 0 0 0 0.34-0.65h0.05c-0.08 0.7 0.86 1.35-0.27 3a9.89 9.89 0 0 0-0.12-2.41m9.07-7.85v0.06s0 0.22 0 0.35l-0.69 0.36a0.78 0.78 0 0 1 0-0.22h0.05a0.28 0.28 0 0 0 0.11 0c0.11 0 0.06 0.05 0.42-0.28a0.28 0.28 0 0 0 0.09-0.18m2.46-8.47c0.11 0.09 0.44 0.48 0.84 1l-0.22-0.08a8.85 8.85 0 0 1-0.62-0.87m-1.43 1a1.17 1.17 0 0 1 0.12 0.2 1.16 1.16 0 0 1-0.08-0.2m-25.87 1.22a1.35 1.35 0 0 0-0.28 0c0.69-0.83 1.76-2.13 2-2.3-0.09 0.19-1 1.39-1.69 2.34m-1.61 6.24h-0.34a0.71 0.71 0 0 1-0.62 0.65l-0.11-0.06-0.09-0.08-0.08-0.1a0.77 0.77 0 0 1-0.08-0.42 0.63 0.63 0 0 1 0.17-0.39 2.29 2.29 0 0 1-0.21-0.23 2.26 2.26 0 0 1-0.16-0.26 2.06 2.06 0 0 1-0.14-1.46 2.18 2.18 0 0 1 2-1.36c0.08-0.16 0-0.22 0.76-0.49 0 0.14 0.39 0.18 0.08 0.93a2 2 0 0 1-1.21 3.26m15.27-26.34a14.09 14.09 0 0 0 1.66 0 7.61 7.61 0 0 0 3.42 1.7 6.88 6.88 0 0 1-2.37-0.26c0 0.5 1.11 1.08 1.82 1.23a3 3 0 0 1-1.57-0.22 1.92 1.92 0 0 0 1 0.8 3 3 0 0 1-2.5 0.88 1.23 1.23 0 0 0 1.09 0.44 9.69 9.69 0 0 0-1.75 4.62 9.81 9.81 0 0 0-1.73-4.6 1.24 1.24 0 0 0 1.1-0.44 2.94 2.94 0 0 1-2.49-0.88 2 2 0 0 0 1-0.8 3 3 0 0 1-1.57 0.22c0.71-0.15 1.79-0.73 1.82-1.23a6.91 6.91 0 0 1-2.38 0.26 7.51 7.51 0 0 0 3.45-1.72m-11.84 26.6m0.34-1.09h-0.1 0.1m21.3 2.83s0 0 0 0a0.59 0.59 0 0 1 0-0.17 0.15 0.15 0 0 0 0 0.13m0 0.09a0.17 0.17 0 0 0 0 0.16s0 0 0 0a0.74 0.74 0 0 1 0-0.21v0.05zm12.36-17.15a4.1 4.1 0 0 0-2.29-0.36 3.25 3.25 0 0 0 2.38-2.41 4.41 4.41 0 0 0-2.14 0 3.25 3.25 0 0 0 1.69-2.71 5.26 5.26 0 0 0-2.37 0.5c1.62-0.89 2.2-3 1.34-4.2-0.49 0.29-2.78 2.62-3.15 2.88 1.45-1.94 3.46-4.13 1.18-6.51a38.68 38.68 0 0 1-3.75 6.12 0.82 0.82 0 0 0-0.36-0.28 5.94 5.94 0 0 1-1.81 2.54 2 2 0 0 0-0.24-0.46c-5.84 3.57-0.84 9.65-5.78 7.32a1.31 1.31 0 0 0 0.73-2.2c-0.45 0.27-0.75 1.15-2.37-0.07a1.05 1.05 0 0 0 1.51-1.11c-2.3 1.17-2.59-2.84-0.47-4.5 0.23 0.46 2.73-0.92 2.94 1.22 0.93-0.53 0.59-1.38-0.6-1.71 1 0.17 3.64 2.44 3.83-0.46-0.44 1.05-2.16 0.22-3.94 0a2.07 2.07 0 0 1 2.56 0.29 1.58 1.58 0 0 0-1.25-2.75 0.34 0.34 0 0 0-0.46-0.36 0.3 0.3 0 0 0-0.11-0.25c1.87 0.17 3.51-1.63 2.59-4.16a4.78 4.78 0 0 0 1.58 0.61c0.68 1.19-1.25 2.63 0.22 4.36a0.93 0.93 0 0 1-0.33 0.83c0.63-0.15 1.62-0.54 0.66-2.31 0.16 1.07 1.62-0.61 1.71 1 2-1.61-1.38-1.07-0.59-2.19 0.64-0.9 1.15-1.78-1.14-2.27-0.51-1.8-4.68-2-3.34 1.32 0.38 0.79 0.8 2.15-1.53 2.59v-0.23c0.35-0.63 1.22-2.41-0.64-2.74-0.11-0.06 0 0-0.41 0v0.16h-0.12v-0.22c0-0.08 0.26-0.14 0-0.63h0.14a2.1 2.1 0 0 1-0.27-0.32 2.43 2.43 0 0 1 0.32 0.26v-1a3.1 3.1 0 0 1-0.32 0.27 1.67 1.67 0 0 1 0.27-0.32h-1a2.16 2.16 0 0 1 0.27 0.32 4 4 0 0 1-0.33-0.27v1a1.93 1.93 0 0 1 0.33-0.27 3.06 3.06 0 0 1-0.27 0.32h0.14c0 0.1-0.26 0.15 0 0.63v0.22h-0.13v-0.16c-0.18-0.05 0 0-0.4 0-0.86 0.4-1.76 0.81-0.65 2.74v0.15a8.84 8.84 0 0 1-3.1-2v-0.65c0.7-0.92 1.9-3.86-0.79-4.25a0.56 0.56 0 0 0-0.53-0.06v0.25h-0.28v-0.31h-0.15c0-0.09 0.61-0.28 0.1-1.06h0.22a1.82 1.82 0 0 1-0.39-0.53 1.83 1.83 0 0 1 0.53 0.38v-1.23a1.58 1.58 0 0 1-0.52 0.38 1.73 1.73 0 0 1 0.38-0.53h-1.26a1.73 1.73 0 0 1 0.38 0.53 1.73 1.73 0 0 1-0.53-0.38v1.26a2.15 2.15 0 0 1 0.53-0.38 1.62 1.62 0 0 1-0.38 0.53h0.22c0 0.14-0.58 0.33 0.1 1.06h-0.16v0.31h-0.29v-0.25a0.56 0.56 0 0 0-0.53 0.06c-1.81 0.37-2.29 2-0.79 4.25v0.66a8.21 8.21 0 0 1-3.09 2v-0.15c0.35-0.63 1.22-2.41-0.65-2.74-0.1-0.06 0 0-0.4 0v0.16h-0.12v-0.22c0-0.08 0.25-0.14 0-0.63h0.14a3.1 3.1 0 0 1-0.27-0.32 2.48 2.48 0 0 1 0.33 0.27v-1a2.71 2.71 0 0 1-0.33 0.27 1.67 1.67 0 0 1 0.27-0.32h-1a1.65 1.65 0 0 1 0.27 0.32 2.71 2.71 0 0 1-0.33-0.27v1l0.33-0.26a2.09 2.09 0 0 1-0.27 0.32h0.17c0 0.1-0.25 0.15 0 0.63v0.22h-0.12v-0.16c-0.19-0.05 0 0-0.41 0-0.86 0.4-1.77 0.82-0.65 2.74v0.23c-3.46 0.58 0.84-8.71-4.87-3.91-2.83-0.23-0.26 3.08-1.58 2.88-0.45-0.06-1.23 0.62-0.15 1.58-0.28-0.72 0.6-0.33 1.71-1-0.15 0.71-1.21 1.65 0.66 2.31a1 1 0 0 1-0.33-0.83c1.09-1.3 0.13-2.39 0.22-4.36a4.87 4.87 0 0 0 1.52-0.65c0.31 2-1.53 3.65 2.59 4.16a0.3 0.3 0 0 0-0.11 0.25 0.34 0.34 0 0 0-0.46 0.36c-0.72 0.05-2.68 1-1.22 2.72a2.07 2.07 0 0 1 2.56-0.29c-1-0.45-2.52 1.69-3.94 0-0.06 1.27 1.27 2.16 3.83 0.46-1.19 0.33-1.53 1.18-0.6 1.71 0.17-1.18 0.41-1.17 2.93-1.22 0.95 0.64 3.15 5.14-0.46 4.5a1.05 1.05 0 0 0 1.51 1.11c-0.09 0.08-1.4 1.28-2.37 0.07a1.31 1.31 0 0 0 0.73 2.2c-3.61 1.72-2.56-0.51-2.38-3.64-0.47-0.68-2.27-2.26-3.42-3.68a2 2 0 0 0-0.24 0.46 5.86 5.86 0 0 1-1.81-2.54 0.88 0.88 0 0 0-0.36 0.28 38.68 38.68 0 0 1-3.75-6.12c-2 1.71-0.88 4 1.22 6.51-0.36-0.26-2.65-2.59-3.15-2.88-0.85 1.21-0.27 3.31 1.34 4.2a5.19 5.19 0 0 0-2.36-0.5 3.25 3.25 0 0 0 1.66 2.75 4.41 4.41 0 0 0-2.14 0 3.24 3.24 0 0 0 2.4 2.4 4.08 4.08 0 0 0-2.28 0.36 2.76 2.76 0 0 0 2.51 2 3.05 3.05 0 0 0-2.06 1 2.65 2.65 0 0 0 2.25 1.08 2.39 2.39 0 0 0-1.42 1.29c0.61 0.49 1.38 0.8 3.15 0.17-2 0.84-1.63 1.25-1.94 2.12 0.78 0.53 2.33 0.27 3.88-1.21-0.32 0.63-2.79 1.25-2.06 3.13h0.29a0.27 0.27 0 0 0-0.06 0.1c-0.41-0.1-1.41-0.16-2 1.25-0.15-0.1-0.52 0-1.08 0.83a1.48 1.48 0 0 0 0 0.16v0.16 0.14l0.07 0.14 0.08 0.11 0.11 0.1s0 0 0 0a1.49 1.49 0 0 0-0.21 0.47 0.35 0.35 0 0 1 0 0.06 1.86 1.86 0 0 0 0 0.35 0.23 0.23 0 0 1 0 0.07 0.32 0.32 0 0 0 0 0.13s0 0.08 0 0.2a0.41 0.41 0 0 1 0 0.07c0 0.05 0.05 0.12 0.12 0.24a0.33 0.33 0 0 1 0 0.06v0.06l0.09 0.09a1.34 1.34 0 0 0 0.26 0.21h0.06a0.81 0.81 0 0 0-0.07 0.43v0.06a0.41 0.41 0 0 1 0 0.07v0.06a0.66 0.66 0 0 0 0.43 0.33 1 1 0 0 0-0.1 0.4s0 0 0 0.15a1.07 1.07 0 0 0 0.05 0.23s0 0 0 0.08a0.9 0.9 0 0 0 0.45 0.4h0.05 0.09 0.09 0.81 0.05 0.39 0.08s0 0 0.15-0.12a1 1 0 0 0 0.19-0.22h0.18 0.11 0.07s0 0 0.13 0a0.63 0.63 0 0 0 0.31-0.1h0.05 0.05 0.05a1.35 1.35 0 0 0 0.08-0.12 0.89 0.89 0 0 0 0.19 0h0.08 0.13 0.13a1.5 1.5 0 0 0 0.34-0.07h0.07l0.61 0.6h0.37l0.71-1.5c0.16 0.1 0 0 0.45 0.21a0.32 0.32 0 0 0 0 0.14l2.17 1a0.29 0.29 0 0 0 0 0.09v0.06s0 0 0 0.06a0.19 0.19 0 0 0 0 0.19s0 0 0 0a0.06 0.06 0 0 0 0 0.06c0.11 0.2 0 0.4 0.58 0.39 0.1-0.08 0.12 0 0.25-0.56 0.07 0.18-0.05 0.09-0.08 0.68a0.35 0.35 0 0 0 0.23 0.15s0.06 0 0.24 0c0.06 0 0.17 0 0.15-0.16s-0.05 0.16 0.16 0.33h0.27 0.05c0.1 0 0.06 0.06 0.24-0.11s0 0 0.06-0.35l4.06 1.89c-0.36-0.12-3.31 3.05-2.7 0.37-0.43 0.06-1.21 0.6-1.21 1.76-1 0.15-2.26 3.17-1.35 3.27a2.66 2.66 0 0 1 1-1.62c0 0.58-0.14 0.55 0.56 1.58-0.06 0.24-2.27 0.75-2.28 1.46 0.33 0.39 1.44-0.6 2.34-0.92v0.15c0.31-0.1 0.2 0 0.64-0.44l0.47-0.24a1.66 1.66 0 0 0 1.52 1.06 2.8 2.8 0 0 1-3.36 0.69c0 1.14 3.88 2 4.7-0.71 0.64 0.28 0.51 1.28 2.68 0.48a3.45 3.45 0 0 0 1.08 1.33 3.24 3.24 0 0 0 1.12-1.29c0.31 0.16 2.3 0.87 2.92-1 0.55 0.34 2.1 1.08 2.72-0.76l0.37 0.17c0.16 0.11-0.21 0.29 0.7 0.64a0.69 0.69 0 0 1-0.08-0.35l2.89 1.35h0.5 0.13s0 0 0.06 0h0.06s0 0 0.1-0.07l0.09-0.1 0.07-0.11a0.14 0.14 0 0 1 0-0.06 0.39 0.39 0 0 1 0-0.06 0.11 0.11 0 0 1 0-0.05s0-0.08 0-0.19 0 0 0-0.12a0.28 0.28 0 0 0-0.06-0.11 0.39 0.39 0 0 0-0.12-0.15s0 0-0.11-0.07l-0.23-0.11-0.71-0.35 0.31-0.66 1.47 0.66 1.63-3.46v-0.16l-0.47-0.22c1.2-0.27 2.29-3.92 0.29-4.39a1.37 1.37 0 0 1-0.94-0.1c0 0.34 0.65 0.92 0.65 0.92 0.13 0.2 0.16 0.5-0.85-0.19 3.16 3.38-2.48 3.06-3.67 0.87 0.1-0.09 0.11-0.08 0.15-0.33 0 0.12 0.1 0.14 0.16 0.16h0.24s0 0 0.26-0.18c0.06-0.13-0.05-0.11-0.09-0.65v-0.14c0 0.31-0.14 0.16 0.23 0.66 0 0 0.59 0.09 0.56-0.45a0.19 0.19 0 0 0 0-0.19s0 0 0 0 0 0 0-0.21a1 1 0 0 0 0.31-0.53h0.08a0.33 0.33 0 0 0 0.14 0s0 0 0.06-0.07l0.18-0.09a0.21 0.21 0 0 0 0.26-0.13l4.11-2.06 0.06 0.11 1.23-0.64-0.05-0.08 0.5-0.25a3 3 0 0 1-0.38-0.73l-0.49 0.25-0.05-0.1-1.25 0.38 0.07 0.12-4 2s0 0 0 0a0.06 0.06 0 0 0-0.06 0s0 0 0-0.06c0-0.1 0-0.07-0.07-0.29a0.54 0.54 0 0 0 0-0.08c0-0.15 0-0.08-0.43-0.26l-0.19-0.13s0 0-0.06-0.06 0 0-0.17 0h-0.08c-0.06 0-0.06 0-0.07 0.1s-0.06 0-0.09 0.07 0 0 0 0 0 0 0 0c-0.17-0.76-0.25-1.37-1.77-1.87 0.37-1 2.42-1.09 2.6 1.06 0.05-0.31 0.17-2 0.7 0.26a1.35 1.35 0 0 1 0.48-0.81s0.33-0.44-0.11-1.3a1.12 1.12 0 0 1 0.32 0.12c0.24-0.45 0.77-0.61 0.69-1.17a5 5 0 0 0 1.92 0.52l-0.09-0.09a0.24 0.24 0 0 0 0-0.08 0.92 0.92 0 0 0 0.18 0.17c0.15 0-0.63 0.32 0.07 0.77 0.12-0.07-0.42 0.44 0.2 0.52 0 0-0.12 0.24 0 0.39l1-0.52c-0.16-0.08-1.84-1.12 0.12-2.07a0.93 0.93 0 0 0 0.23-0.48 2.88 2.88 0 0 1 0.52-0.08c0.39-1-0.73-2.3-2.06-3.13 1 0.52 2.24 2.31 3.88 1.21-0.31-0.87 0.08-1.28-1.94-2.12 1.77 0.63 2.54 0.32 3.15-0.17a2.39 2.39 0 0 0-1.37-1.32 2.64 2.64 0 0 0 2.25-1.08 3.05 3.05 0 0 0-2.06-1 2.76 2.76 0 0 0 2.51-2" fill="#808d9c"/>
<path class="cls-5" d="m56.103 42.255a1.53 1.53 0 0 0-0.8 1l-0.1 0.07-0.05 0.14a0.28 0.28 0 0 0-0.22 0c-0.29 0.13-0.13 0.46-0.13 0.46s0.13 0.36 0.23 0.57a4.9 4.9 0 0 0 0.35 0.57s0.23 0.25 0.44 0.14a0.29 0.29 0 0 0 0.15-0.25h0.11 0.2a1.52 1.52 0 1 0-0.18-2.79" fill="#808d9c"/>
<path class="cls-5" d="m52.933 44.935c-0.17-0.27-0.06-0.38-0.06-0.38a0.26 0.26 0 0 1-0.14-0.05l-0.55 0.28c-0.1 0.06-0.29 0.18-0.32 0.31a1.63 1.63 0 0 0 1.07-0.16" fill="#808d9c"/>
<path class="cls-5" d="m52.703 44.485c-0.11-0.09-0.14-0.16-0.12-0.26s0-0.18 0.12-0.23h-0.1s-0.3 0-0.35 0a1.9 1.9 0 0 0-0.91 0.41c0.31 0.32 1 0.22 1.36 0.12" fill="#808d9c"/>
<path class="cls-5" d="m52.563 43.935a0.42 0.42 0 0 1-0.17-0.32 0.38 0.38 0 0 1 0.14-0.33 4.45 4.45 0 0 0-1.81 0.14 1.67 1.67 0 0 0 1.3 0.49s0.54 0 0.54 0" fill="#808d9c"/>
<path class="cls-5" d="m56.333 46.545c-0.36 0-0.58 0.29-0.93 0.29a0.84 0.84 0 0 1-0.72-0.38 1.43 1.43 0 0 1-0.1-1.05l-1 0.53c0 0.21 0.3 0.26 0.3 0.26a0.35 0.35 0 0 0 0 0.36c0.1 0.17 0.34 0.1 0.34 0.1s0 0.36 0.14 0.5a0.42 0.42 0 0 0 0.43 0 0.67 0.67 0 0 0 0.21 0.51 0.41 0.41 0 0 0 0.43 0s0.08 0.26 0.21 0.32a0.39 0.39 0 0 0 0.41-0.17 0.82 0.82 0 0 0 0.37 0.52 0.55 0.55 0 0 0 0.52-0.07c0.28-0.21 0.11 0.11 0.08 0.19-0.12 0.4-0.26 0.78-0.39 1.17a1.14 1.14 0 0 0 0 0.94s0.16 0.18 0.29 0.15c0.11-0.44 0.26-0.87 0.38-1.31a5.19 5.19 0 0 0 0.3-1.52 1.7 1.7 0 0 0-0.32-1 0.94 0.94 0 0 0-0.87-0.38" fill="#808d9c"/>
<path class="cls-5" d="m53.733 46.245s-0.14 0-0.27-0.27a1.62 1.62 0 0 0-0.76 0.77 0.66 0.66 0 0 0 0.44-0.08 5.38 5.38 0 0 0 0.55-0.28 0.48 0.48 0 0 1 0-0.14" fill="#808d9c"/>
<path class="cls-5" d="m54.073 46.835a0.33 0.33 0 0 1 0-0.1 0.44 0.44 0 0 1-0.27 0 0.27 0.27 0 0 1-0.14-0.25c-0.31 0.25-0.78 0.72-0.7 1.16a1.81 1.81 0 0 0 0.87-0.49 2.89 2.89 0 0 0 0.21-0.28" fill="#808d9c"/>
<path class="cls-5" d="m54.243 47.235a0.51 0.51 0 0 1-0.16-0.34s-0.27 0.42-0.3 0.45a1.61 1.61 0 0 0-0.37 1.32 4.38 4.38 0 0 0 1.18-1.37 0.37 0.37 0 0 1-0.35-0.06" fill="#808d9c"/>
<path class="cls-5" d="m55.123 47.835a0.37 0.37 0 0 1-0.31-0.16 0.52 0.52 0 0 1-0.15-0.38s-0.16 0.26-0.17 0.26a2.9 2.9 0 0 0-0.56 1.77 2 2 0 0 0 0.51-0.46c0.06 0 0.66-1 0.66-1" fill="#808d9c"/>
<path class="cls-5" d="m55.303 48.795 0.41-0.69a0.33 0.33 0 0 1-0.29-0.12 0.55 0.55 0 0 1-0.1-0.19 0.31 0.31 0 0 1-0.12 0l-0.26 0.42a4.61 4.61 0 0 0-0.56 2 2.31 2.31 0 0 0 0.33-0.37c0.17-0.25 0.59-1 0.59-1" fill="#808d9c"/>
<path class="cls-5" d="m56.183 48.345a1 1 0 0 1-0.25-0.41 0.34 0.34 0 0 1-0.15 0.12c-0.07 0.1-0.49 0.89-0.49 0.89-0.33 0.61-0.81 1.93-0.59 2.29a5 5 0 0 0 0.88-1.5l0.6-1.39z" fill="#808d9c"/>
<path class="cls-5" d="m56.333 50.025 0.63-1.7a0.59 0.59 0 0 1-0.7 0.08s-0.41 1-0.64 1.57a3.91 3.91 0 0 0-0.32 2.1 1.13 1.13 0 0 0 0.35-0.4 2.81 2.81 0 0 0 0.18-0.36l0.5-1.29z" fill="#808d9c"/>
<path class="cls-5" d="m56.363 50.245a8.56 8.56 0 0 0-0.62 2 3.61 3.61 0 0 0 0.26 1.23l0.8-2.59s-0.39 0-0.44-0.6" fill="#808d9c"/>
<path class="cls-2" d="m37.933 33.125h-5.3v11c0 1.36 0.56 2 1.73 2h1.75a2 2 0 0 1 1.82 1.48 1.91 1.91 0 0 1 1.79-1.53h1.76c1.16 0 1.73-0.64 1.73-2v-11l-5.28 0.05z" fill="#fff"/>
<path class="cls-6" d="m37.933 33.125h-5.3v11c0 1.36 0.56 2 1.73 2h1.75a2 2 0 0 1 1.82 1.48 1.91 1.91 0 0 1 1.79-1.53h1.76c1.16 0 1.73-0.64 1.73-2v-11l-5.28 0.05z" fill="none" stroke="#fff" stroke-miterlimit="10" stroke-width=".03px"/>
<path class="cls-5" d="m35.773 43.655h-0.29c0-0.14-0.11-0.19-0.12-0.34 0-0.53-0.21-0.32 0.3-1.31 0.48-0.34 0.14-0.36 1.29-1 0.14 0.1 0.11 0.42 0 0.54a0.85 0.85 0 0 1 0.06 0.17 0.86 0.86 0 0 0 0.27 0.09c0.22 0.19 0.16 0.1 0.78 1.1v-0.11l0.11 0.1h-0.09c0 0.07 0 0.17 0.06 0.17s-0.25 0-0.31 0.09a0.38 0.38 0 0 0-0.23 0.1c-0.09 0-0.13 0-0.2 0.07 0.46-0.19-1.35-2.33-1.66 0.21h-0.1s0.13 0.06 0.13 0.14m2.56-1.13-0.46-1.65a0.94 0.94 0 0 0 0.11-0.4h0.35a0.76 0.76 0 0 1 0.13 0.4c0.09 0-0.11 0.15 0 0.42 0.18 0 0.05 0 0.37-0.08 0.27 0 0.15 0 0.5 0.44a2.87 2.87 0 0 0 0.42 0.82c-0.18 0 0 0-0.14 0.25 0 0 0-0.16 0.16-0.11s0 0 0 0 0 0.09 0 0.13 0 0-0.12 0.21v-0.08s0 0 0.14 0a0.47 0.47 0 0 1 0 0.18s-0.09 0.05-0.11 0.1a0.31 0.31 0 0 0-0.26 0.05s0 0 0.13 0 0 0.05 0 0.1 0 0 0 0-0.1 0-0.14 0-0.23-0.2-0.41-0.18 0 0-0.21 0h0.16s0.1-0.09 0.18-0.1a0.15 0.15 0 0 1 0 0.08c0 0.1 0.29-0.13-0.07-0.24a1.64 1.64 0 0 0-0.53 0.36c0-0.08 0.07-0.18 0-0.25 0.12 0 0.12-0.2 0.27-0.22s0 0.08 0 0.1c0.14 0 0 0 0.09-0.25-0.06 0 0-0.05-0.2 0s-0.1-0.07-0.24 0.25c-0.05 0 0.1-0.11-0.09-0.31s-0.08 0-0.13 0.05m-2.33-8.33c-0.1 0.16-0.06 0 0.06 0.51-0.07 0.13-0.18 0.08-0.14 0.51-0.24 0.13-1.56-0.1-1.34 0.76 0 0-0.4 0.42 0 0.65 0 0.13-0.16 0.19 0.1 0.38a0.24 0.24 0 0 0 0.42 0c0.31-0.14 0.2 0.82 0.65 0.25a0.77 0.77 0 0 0 0.34 0l0.13 0.09c0.12-0.09 0-0.1 0.34 0a0.28 0.28 0 0 1 0.23-0.11l0.1 0.37h-0.08c0 0.31 0.18 0.46 0.21 0.75a3.16 3.16 0 0 0-1.3 0.25c-0.36-0.68-1.83-0.7-1.74 1a0.17 0.17 0 0 0-0.05 0.15 0.74 0.74 0 0 0 0.18-0.09 3.2 3.2 0 0 0 0 0.89 0.76 0.76 0 0 0 0.26-0.42 0.87 0.87 0 0 1 0 0.52c0.07-0.2 0.43-0.1 0.59-0.71 0 0.2 0.07 0.44-0.06 0.56a0.36 0.36 0 0 0 0.12-0.08c0.62 0.44-0.4-2.23 0.61-1.55-0.4 0.59 0.7 1.86-0.28 2.94a2.38 2.38 0 0 1-0.47 1.26s0 0 0.05 0 0 0 0 0 0 0 0.05 0 0 0-0.05 0.31c-0.34 0.26 0.15-1-0.79-1 0.72 0.16-0.12 2.3 1.94 1.82v0.13a0.83 0.83 0 0 1-0.27 0.17c0.7-0.16 2.23 1.33 3.29 0.23 0-0.16 0.44 0.16 0.33-0.44 0.07 0 0-0.11 0.29-0.13h0.07s0.08 0 0.23 0 0 0.14 0.45 0.22a0.86 0.86 0 0 0 0.1-0.16c0.39-0.16 1.16 0.18 1.21-0.58a1.63 1.63 0 0 1-0.11 0.17s0 0 0.09-0.09c0 0.08-0.08 0.17-0.12 0.18s0.12-0.26 0-0.39a0.35 0.35 0 0 1-0.21 0.35s0.05-0.2 0-0.24a0.18 0.18 0 0 1-0.07 0.15s0-0.11 0-0.12a0.28 0.28 0 0 1-0.18 0.21s0 0 0-0.09 0 0.06-0.09 0.06 0-0.09-0.05-0.11 0 0.07-0.06 0.09 0-0.08-0.05-0.1 0 0 0 0.06a0.6 0.6 0 0 0-0.13-0.25c0.07 0 0-0.1 0.07-0.13s0 0 0.09 0 0-0.07 0-0.09 0 0 0.06 0 0-0.06 0-0.09 0.05 0 0.08-0.06a0.2 0.2 0 0 1 0.13 0.14 0.5 0.5 0 0 0 0-0.27s0 0 0.07 0 0.08 0.14 0.07 0.18 0-0.14 0-0.21 0.06 0.09 0.1 0.14c0-0.33-0.39-0.24-0.88 0.15 0-0.09-0.14-0.13-0.19-0.23a0.66 0.66 0 0 0 0.08-0.21s-0.1 0-0.12-0.09a0.18 0.18 0 0 0 0-0.1s-0.09 0-0.13 0a13.71 13.71 0 0 0-0.48-2s0 0.13 0 0l0.24 0.1c0.17 0.05 0.69-0.62 1.39-0.76 0.14 0.16-0.16 0.4-0.31 0.88-0.06 0 0 0.1-0.06 0.16-0.28 0-0.25-0.3-0.38 0.42 0.28 0 0 0 0.56-0.1 0.43-0.3 0.45-0.66 0.66-1.69-0.41-0.49-0.07-0.29-1.49 0 0.14-0.34-0.06-0.22-0.26-1.45 0.14 0.07 0.14 0.11 0.41-0.19-0.05 0 0.12 0.27 0.32 0.08h0.06s0 0 0.14 0c0.37-0.14 0.49-0.2 0.14-1.45h0.06 0.17c-0.06-0.12 0-0.29-0.08-0.39l0.12-0.12a0.78 0.78 0 0 0-0.3-0.07s0-0.05-0.26-0.09c0-0.07 0.11-0.14 0.16-0.22a1.61 1.61 0 0 0-0.33 0s0 0-0.26-0.06-0.24-0.25-1 0a0.24 0.24 0 0 1 0.22 0.12c-0.3 0-0.2-0.14-0.68 0.16a0.26 0.26 0 0 0-0.17 0.18h0.12c-0.06 0.08-0.4 0-0.44 0.17h0.32c-0.18 0.07 0 0-0.4 0.35a0.94 0.94 0 0 0-0.52-0.71s0 0 0 0-0.06 0 0-0.2c0.06 0 0.1 0.06 0.21-0.06 0.52 0.38 0.64-1.52-0.54-0.86 0.44-0.49 1.55 0.64 0.55 0.85l0.08-0.07s0-0.17 0.15-0.2a1 1 0 0 0 0-0.18 0.2 0.2 0 0 0 0-0.17c0 0.05 0 0.13-0.06 0.16s0-0.16 0-0.19a0.22 0.22 0 0 1 0 0.16s0-0.05 0-0.09 0 0.05 0 0.07-0.06-0.07-0.12-0.07 0 0 0 0c-0.23 0-0.4 0.3-0.45 0.5 0 0-0.2 0-0.12-0.21-0.08 0.09-0.22 0.12 0-0.22-0.11 0-0.16 0.16-0.22 0.26 0-0.08-0.16-0.16 0.13-0.36-0.1 0 0 0-0.2 0.12-0.11-0.1 0.06-0.28 0.47-0.41l-0.23 0.08c-0.13 0-0.52 0.45-0.12 0.58 0 0.13 0.13 0-0.05 0.25a2.73 2.73 0 0 0-1.07-0.51v-0.1c0.05-0.11 0.09-0.1-0.1-0.31s0 0-0.14 0 0.25-0.31 0.03-0.69l-0.1 0.09z" fill="#808d9c"/>
<path class="cls-7" d="m51.723 49.135c-0.13 0-0.16 0.28 0.08 0.17 0-0.08 0.07-0.08-0.08-0.17m0 0.29s-0.4-0.25 0-0.39c0.01-0.1 0.4 0.3 0 0.39zm-2.52-5.11c0.11 0 0.11 0.1 0 0s-0.13 0.41 0 0m0 0.3c-0.19 0.11-0.28-0.71 0.2-0.21 0 0.11 0.01 0.01-0.2 0.21zm7.57 6.18-0.84 2.61a4.17 4.17 0 0 1 0.37-3.21c0.05 0.64 0.44 0.6 0.44 0.6m-1 0.48a1.92 1.92 0 0 1-0.54 0.77c-0.2-0.78 0.34-2.27 1-3.69a0.61 0.61 0 0 0 0.71-0.09c-0.2 0.6-0.67 1.88-1.12 3.01h-0.05zm-0.23-1.54a5.06 5.06 0 0 1-0.89 1.5 5.82 5.82 0 0 1 1.09-3.21 0.25 0.25 0 0 0 0.22-0.09 1.22 1.22 0 0 0 0.24 0.37l-0.66 1.43zm-0.9 0.05a2.51 2.51 0 0 1-0.34 0.36 4.65 4.65 0 0 1 0.83-2.38 0.31 0.31 0 0 0 0.12 0s-0.05 0.25 0.4 0.31c-0.28 0.46-0.31 0.53-1 1.74m-0.26-1a2 2 0 0 1-0.51 0.46 2.81 2.81 0 0 1 0.55-1.77l0.16-0.27c0-0.11 0 0.52 0.47 0.55 0 0-0.61 1-0.67 1m0.13-1.57a4.43 4.43 0 0 1-1.19 1.38 1.6 1.6 0 0 1 0.38-1.34s0.3-0.45 0.3-0.45-0.09 0.42 0.51 0.41m-1.56 0.33c-0.07-0.44 0.4-0.92 0.72-1.17 0.08 0.09-0.11 0.21 0.4 0.29a0.31 0.31 0 0 0 0 0.11 3.32 3.32 0 0 1-0.22 0.27 1.88 1.88 0 0 1-0.88 0.5m0.71-1.23a1.79 1.79 0 0 1-1 0.36 1.62 1.62 0 0 1 0.78-0.77c0.12 0.3 0.27 0.27 0.27 0.27a0.36 0.36 0 0 0-0.05 0.14m3.56 0.55c0.27 0.25 0.26 0.65 0.33 1-0.1 0.71 0.16-0.21-0.7 2.84-1.25-0.37 1.08-1.63-0.87-2.92 0 0-0.37 0.48-0.63-0.14 0.08-0.12-0.62 0.32-0.64-0.52 0.09-0.12-0.64 0.31-0.58-0.52 0.13 0-0.62 0.08-0.31-0.47 0 0-0.27 0-0.31-0.26l1.06-0.53c0 0.18-0.17 2.15 1.76 1.14a1 1 0 0 1 0.89 0.39m-8.91-8.47 2.6 0.89s-0.26 0.3 0.23 0.71c-1.06-0.57-1.32 0.28-2.83-1.6m2.62 2.35a4.12 4.12 0 0 1-1.92-1c1-0.17 2.66 0.54 4.08 0.89-0.41 0.15-0.44 0.29-0.49 0.52l-1.67-0.41m-1.61 0a10.38 10.38 0 0 1 3.28 0.57 1 1 0 0 0 0.16 0.4 0.27 0.27 0 0 0-0.18 0 6.57 6.57 0 0 1-3.26-1m2.61 1.6a4.85 4.85 0 0 1-1.94-0.7 12 12 0 0 1 2.51 0.17s-0.14 0.18 0 0.49l-0.09 0.09-0.48-0.05zm0.3 0.78a3 3 0 0 1-1.77-0.61 1.9 1.9 0 0 1 0.68-0.14c0.08 0 1.23 0.08 1.23 0.08s-0.25 0.36 0.17 0.69l-0.31-0.02zm-0.26 0.7a1.68 1.68 0 0 1-1.31-0.49 4.6 4.6 0 0 1 1.84-0.14c-0.07 0.13-0.31 0.23 0 0.65h-0.55m-0.69 0.48a1.73 1.73 0 0 1 1.29-0.42s0.06 0 0.09 0-0.26 0.12 0 0.49c-0.38 0.11-1.06 0.2-1.38-0.12m0.54 0.75c0.14-0.16-0.1-0.11 0.88-0.6a0.43 0.43 0 0 0 0.14 0.06s-0.1 0.1 0.07 0.37a1.63 1.63 0 0 1-1.09 0.17m-0.87-5.37s0-0.24 0-0.32a17.77 17.77 0 0 1 2.72 1.12c-0.05 0.3 1 0.28 0.41 1.79 0 0.34-2.1 0.81-0.11 2.08-0.36 0.19-1 0.47-1.06 0.53-0.15-0.15 0-0.4 0-0.4s-0.63-0.08-0.19-0.52c0.19 0.06-0.7-0.39-0.08-0.77 0.19 0.08-0.67-0.45-0.05-0.82 0.16 0-0.54-0.41 0.26-0.6-0.32-1.41 0.78-0.7-1.92-2.09m-0.52 13.66-0.64 1.33-0.82-0.39 0.44-0.91a4.32 4.32 0 0 0 1 0m0.63-0.2-0.17 0.35-0.38-0.17a3.23 3.23 0 0 0 0.55-0.18m-5.37 0.89 1-2a6.54 6.54 0 0 0 1.45 1l-0.84 1.78-1.61-0.78zm-0.35 1.57-2-0.95c0.2-0.06 0.14 0 0.91-0.43l1.48 0.69-0.39 0.69zm-8.5-0.21a2.71 2.71 0 0 1-2.37-0.25l3.19-1.58 0.54 0.25a2.94 2.94 0 0 1-1.36 1.58m0.15-2.18-2.63 1.33a3 3 0 0 1 1.38-1.91l1.25 0.58zm4.06-4.26a3 3 0 0 1 3.16 0.64l-4.38 2.23c0.11-1.1 0.4-2.51 1.22-2.87m-1 3.48 4.58-2.27c0.18 2-1.53 4.52-4.58 2.27m-18.14-5.16h-0.33c0.14 0.52-1.73 1.12-1.23-0.51a2 2 0 0 1 1.5-3.29c0.07-0.53 1.61-0.73 1.26 0.62a2 2 0 0 1-1.2 3.18m36.29-4.42a1.63 1.63 0 0 0-2.89 0.39c-0.47 0.37-0.58 0.68-0.55 0.92l-9 4.59c-0.89-0.76 0.57-8.88 2.75-3.22 0-0.16 0.15-2.14 0.71 0.27a1.38 1.38 0 0 1 0.49-0.81c0-4.27-6.95-3.26-5.47 3-2.75-1.73-5.61 0.28-5.77 3.53a4.8 4.8 0 0 0-2.4-0.23l-10.35-4.82-0.53-0.23 0.72-1.5c-0.1 0-0.3-0.12-0.77-0.35a1.27 1.27 0 0 0-0.67-0.86c0.1-0.3 0.14-0.13-0.42-1 0.29-0.55-0.48-2.21-1.73-0.81-0.48-0.24 0-0.11-1 0.31-0.4-0.1-1.39-0.16-1.95 1.22 0 0-1.55 0-0.75 1.6-0.42 0.65-0.66 1.1 0.29 2.26-0.1 0.29-0.14 0.14 0.43 1-0.29 0.54 0.47 2.19 1.73 0.8 0.47 0.24 0 0.11 1-0.31a1.32 1.32 0 0 0 1.1 0l0.76 0.36 0.66-1.39 9.79 4.53a4.07 4.07 0 0 0-1.16 2.35c-1.14-1.76-6.56-0.41-5 2.55 0.21-1 1.68-3.48 4.52-1.56-10.11 5-3.06 2.43 0.32 0.45-0.15 0.83-0.23 4.25-3.94 2.87 0.71 1.87 5.39 1.57 5-2.45 2.87 1.07 3.81 0.38 5.22-1.9l9.18 4.25c-0.05 0 1.6 0.09 0.59-1.24s-0.36-0.18-1-0.47l0.33-0.69 1.54 0.71 1.7-3.6-0.47-0.22c1.25-0.26 2.36-4 0.32-4.43a1.36 1.36 0 0 1-0.94-0.09c0.17 0.47 1.43 1.8-0.2 0.73 3.39 4.42-3.9 2.13-4.39 0.15l9.12-4.52c0.17 0.17 0.45 0.23 1.05 0.06 0.75 0.14 2.48 0 2-2.1" fill="#fabc42"/>
</g>
</g>
</g>
</svg>
